<svg xmlns="http://www.w3.org/2000/svg" version="1.1" xmlns:xlink="http://www.w3.org/1999/xlink" xmlns:svgjs="http://svgjs.dev/svgjs" width="1500" height="1919" viewBox="0 0 1500 1919"><g transform="matrix(1,0,0,1,-0.6159815645485196,0.7769230769230262)"><svg viewBox="0 0 193 247" data-background-color="#110f10" preserveAspectRatio="xMidYMid meet" height="1919" width="1500" xmlns="http://www.w3.org/2000/svg" xmlns:xlink="http://www.w3.org/1999/xlink"><g id="tight-bounds" transform="matrix(1,0,0,1,0.07925629463858286,-0.09999999999999432)"><svg viewBox="0 0 192.84148741072283 247.2" height="247.2" width="192.84148741072283"><g><svg viewBox="0 0 397.4975999999999 509.5449534192724" height="247.2" width="192.84148741072283"><g><rect width="397.4975999999999" height="12.689962928329752" x="0" y="229.05245254758333" fill="#3882f6" opacity="1" stroke-width="0" stroke="transparent" fill-opacity="1" class="rect-qz-0" data-fill-palette-color="primary" rx="1%" id="qz-0" data-palette-color="#3882f6"></rect></g><g transform="matrix(1,0,0,1,0.9887999999999693,274.962213717614)"><svg viewBox="0 0 395.52 234.5827397016584" height="234.5827397016584" width="395.52"><g id="textblocktransform"><svg viewBox="0 0 395.52 234.5827397016584" height="234.5827397016584" width="395.52" id="textblock"><g><svg viewBox="0 0 395.52 140.71654145995748" height="140.71654145995748" width="395.52"><g transform="matrix(1,0,0,1,0,0)"><svg width="395.52" viewBox="4.5 -24.95 70.55 25.099999999999998" height="140.71654145995748" data-palette-color="#3882f6"><g class="wordmark-text-0" data-fill-palette-color="primary" id="text-0"><path d="M16.2-12.95Q21.75-11.85 21.75-7.05L21.75-7.05Q21.75-3.45 18.95-1.65 16.15 0.15 10.75 0.15L10.75 0.15Q7.5 0.15 4.5 0L4.5 0 4.65-7.5 4.5-24.9 12.3-24.95Q16.05-24.95 18.13-23.38 20.2-21.8 20.2-18.9L20.2-18.9Q20.2-16.75 19.15-15.25 18.1-13.75 16.2-12.95L16.2-12.95ZM16.25-18.45Q16.25-20.3 15.05-21.15 13.85-22 11.2-22L11.2-22 8.15-22 8.1-14.3 12.55-14.15Q14.4-14.55 15.33-15.58 16.25-16.6 16.25-18.45L16.25-18.45ZM11.2-2.7Q14.45-2.7 16.18-3.83 17.9-4.95 17.9-7.15L17.9-7.15Q17.9-8.95 16.7-9.95 15.5-10.95 13.05-11.3L13.05-11.3 8.1-11.25 8.05-7.8 8.15-2.85Q9.7-2.7 11.2-2.7L11.2-2.7ZM49.4-24.9L49.25-7.8 49.35 0 45.65 0 45.8-7.5 45.75-10.9 32.2-10.85 32.15-7.8 32.25 0 28.55 0 28.7-7.5 28.55-24.9 32.3-24.9 32.2-14.2 38.95-14.15 45.75-14.2 45.65-24.9 49.4-24.9ZM66.84-24.95Q70.8-24.95 72.92-23.05 75.05-21.15 75.05-17.55L75.05-17.55Q75.05-13.35 72.37-10.98 69.69-8.6 65-8.6L65-8.6 61.95-8.6 61.95-7.8 62.05 0 58.34 0 58.49-7.5 58.34-24.9 66.84-24.95ZM66.19-11.5Q71.14-12.35 71.14-17.25L71.14-17.25Q71.14-19.6 69.82-20.75 68.5-21.9 65.84-22L65.84-22 62.05-21.95 61.99-11.6 66.19-11.5Z" fill="#3882f6" data-fill-palette-color="primary"></path></g></svg></g></svg></g><g transform="matrix(1,0,0,1,0,173.9363397016584)"><svg viewBox="0 0 395.52 60.6464" height="60.6464" width="395.52"><g transform="matrix(1,0,0,1,0,0)"><svg width="395.52" viewBox="2 -36.5 307.48 47.150000000000006" height="60.6464" data-palette-color="#3882f6"><path d="M2-12.95L2-12.95Q2-16.65 3.53-19.73 5.05-22.8 7.75-24.65 10.45-26.5 13.9-26.5L13.9-26.5Q17.15-26.5 19.73-24.78 22.3-23.05 23.75-20.6L23.75-20.6 23.75-36.5 27.15-36.5 27.15-4.1Q27.15-3.4 27.45-3.08 27.75-2.75 28.35-2.7L28.35-2.7 28.35 0Q27.35 0.15 26.8 0.1L26.8 0.1Q25.75 0.05 24.95-0.75 24.15-1.55 24.15-2.5L24.15-2.5 24.15-5.05Q22.6-2.5 19.95-1 17.3 0.5 14.45 0.5L14.45 0.5Q11.75 0.5 9.47-0.6 7.2-1.7 5.53-3.6 3.85-5.5 2.93-7.93 2-10.35 2-12.95ZM23.75-8.95L23.75-8.95 23.75-17Q23.1-18.8 21.65-20.28 20.2-21.75 18.38-22.63 16.55-23.5 14.75-23.5L14.75-23.5Q12.65-23.5 10.95-22.63 9.25-21.75 8.03-20.25 6.8-18.75 6.15-16.85 5.5-14.95 5.5-12.95L5.5-12.95Q5.5-10.85 6.23-8.95 6.95-7.05 8.3-5.58 9.65-4.1 11.4-3.3 13.15-2.5 15.2-2.5L15.2-2.5Q16.5-2.5 17.9-3 19.3-3.5 20.58-4.38 21.85-5.25 22.7-6.45 23.55-7.65 23.75-8.95ZM46.1 0.5L46.1 0.5Q43.3 0.5 40.9-0.58 38.5-1.65 36.75-3.53 35-5.4 34.02-7.85 33.05-10.3 33.05-13.1L33.05-13.1Q33.05-16.75 34.72-19.8 36.4-22.85 39.35-24.68 42.3-26.5 46.05-26.5L46.05-26.5Q49.9-26.5 52.77-24.65 55.65-22.8 57.3-19.78 58.95-16.75 58.95-13.15L58.95-13.15Q58.95-12.75 58.95-12.38 58.95-12 58.9-11.8L58.9-11.8 36.6-11.8Q36.85-9 38.17-6.83 39.5-4.65 41.62-3.38 43.75-2.1 46.25-2.1L46.25-2.1Q48.8-2.1 51.07-3.4 53.35-4.7 54.25-6.8L54.25-6.8 57.2-6Q56.4-4.15 54.75-2.65 53.1-1.15 50.87-0.33 48.65 0.5 46.1 0.5ZM36.5-14.25L36.5-14.25 55.75-14.25Q55.55-17.1 54.22-19.25 52.9-21.4 50.77-22.63 48.65-23.85 46.1-23.85L46.1-23.85Q43.55-23.85 41.45-22.63 39.35-21.4 38.02-19.23 36.7-17.05 36.5-14.25ZM74.9 0L71.25 0 60.7-26.05 64.25-26.05 73.15-3.4 82.09-26.05 85.45-26.05 74.9 0ZM100.49 0.5L100.49 0.5Q97.69 0.5 95.29-0.58 92.89-1.65 91.14-3.53 89.39-5.4 88.42-7.85 87.44-10.3 87.44-13.1L87.44-13.1Q87.44-16.75 89.12-19.8 90.79-22.85 93.74-24.68 96.69-26.5 100.44-26.5L100.44-26.5Q104.29-26.5 107.17-24.65 110.04-22.8 111.69-19.78 113.34-16.75 113.34-13.15L113.34-13.15Q113.34-12.75 113.34-12.38 113.34-12 113.29-11.8L113.29-11.8 90.99-11.8Q91.24-9 92.57-6.83 93.89-4.65 96.02-3.38 98.14-2.1 100.64-2.1L100.64-2.1Q103.19-2.1 105.47-3.4 107.74-4.7 108.64-6.8L108.64-6.8 111.59-6Q110.79-4.15 109.14-2.65 107.49-1.15 105.27-0.33 103.04 0.5 100.49 0.5ZM90.89-14.25L90.89-14.25 110.14-14.25Q109.94-17.1 108.62-19.25 107.29-21.4 105.17-22.63 103.04-23.85 100.49-23.85L100.49-23.85Q97.94-23.85 95.84-22.63 93.74-21.4 92.42-19.23 91.09-17.05 90.89-14.25ZM118.74-4.75L118.74-36.5 122.14-36.5 122.14-5.9Q122.14-3.95 122.84-3.35 123.54-2.75 124.54-2.75L124.54-2.75Q125.44-2.75 126.34-2.95 127.24-3.15 127.89-3.35L127.89-3.35 128.49-0.6Q127.54-0.2 126.17 0.05 124.79 0.3 123.79 0.3L123.79 0.3Q121.49 0.3 120.12-1.05 118.74-2.4 118.74-4.75L118.74-4.75ZM143.29 0.5L143.29 0.5Q140.49 0.5 138.11-0.58 135.74-1.65 134.01-3.53 132.29-5.4 131.34-7.83 130.39-10.25 130.39-12.95L130.39-12.95Q130.39-15.75 131.34-18.18 132.29-20.6 134.04-22.48 135.79-24.35 138.16-25.43 140.54-26.5 143.34-26.5L143.34-26.5Q146.14-26.5 148.49-25.43 150.84-24.35 152.59-22.48 154.34-20.6 155.29-18.18 156.24-15.75 156.24-12.95L156.24-12.95Q156.24-10.25 155.29-7.83 154.34-5.4 152.61-3.53 150.89-1.65 148.51-0.58 146.14 0.5 143.29 0.5ZM133.84-12.9L133.84-12.9Q133.84-10 135.11-7.63 136.39-5.25 138.54-3.88 140.69-2.5 143.29-2.5L143.29-2.5Q145.89-2.5 148.04-3.9 150.19-5.3 151.49-7.73 152.79-10.15 152.79-13L152.79-13Q152.79-15.9 151.49-18.3 150.19-20.7 148.04-22.1 145.89-23.5 143.29-23.5L143.29-23.5Q140.69-23.5 138.56-22.05 136.44-20.6 135.14-18.23 133.84-15.85 133.84-12.9ZM175.24 0.5L175.24 0.5Q171.99 0.5 169.41-1.2 166.84-2.9 165.34-5.4L165.34-5.4 165.34 10.65 161.94 10.65 161.94-26.05 164.99-26.05 164.99-21Q166.53-23.45 169.13-24.98 171.74-26.5 174.69-26.5L174.69-26.5Q177.38-26.5 179.63-25.38 181.88-24.25 183.53-22.35 185.19-20.45 186.11-18.03 187.03-15.6 187.03-13L187.03-13Q187.03-9.35 185.56-6.28 184.09-3.2 181.44-1.35 178.78 0.5 175.24 0.5ZM174.28-2.5L174.28-2.5Q176.44-2.5 178.13-3.38 179.84-4.25 181.06-5.75 182.28-7.25 182.94-9.13 183.59-11 183.59-13L183.59-13Q183.59-15.1 182.86-17 182.13-18.9 180.78-20.35 179.44-21.8 177.69-22.65 175.94-23.5 173.88-23.5L173.88-23.5Q172.59-23.5 171.19-23 169.78-22.5 168.51-21.58 167.24-20.65 166.38-19.5 165.53-18.35 165.34-17.05L165.34-17.05 165.34-9.05Q166.13-7.2 167.49-5.73 168.84-4.25 170.61-3.38 172.38-2.5 174.28-2.5ZM231.53-15.25L231.53 0 228.13 0 228.13-14.55Q228.13-19.1 226.68-21.25 225.23-23.4 222.38-23.4L222.38-23.4Q219.43-23.4 217.11-21.3 214.78-19.2 213.83-15.9L213.83-15.9 213.83 0 210.43 0 210.43-14.55Q210.43-19.15 209.03-21.28 207.63-23.4 204.73-23.4L204.73-23.4Q201.83-23.4 199.48-21.35 197.13-19.3 196.18-15.95L196.18-15.95 196.18 0 192.78 0 192.78-26.05 195.88-26.05 195.88-20.15Q197.53-23.2 200.11-24.85 202.68-26.5 205.83-26.5L205.83-26.5Q209.08-26.5 211.08-24.65 213.08-22.8 213.53-19.8L213.53-19.8Q215.33-23.1 217.86-24.8 220.38-26.5 223.58-26.5L223.58-26.5Q225.78-26.5 227.31-25.7 228.83-24.9 229.76-23.43 230.68-21.95 231.11-19.88 231.53-17.8 231.53-15.25L231.53-15.25ZM249.98 0.5L249.98 0.5Q247.18 0.5 244.78-0.58 242.38-1.65 240.63-3.53 238.88-5.4 237.91-7.85 236.93-10.3 236.93-13.1L236.93-13.1Q236.93-16.75 238.61-19.8 240.28-22.85 243.23-24.68 246.18-26.5 249.93-26.5L249.93-26.5Q253.78-26.5 256.66-24.65 259.53-22.8 261.18-19.78 262.83-16.75 262.83-13.15L262.83-13.15Q262.83-12.75 262.83-12.38 262.83-12 262.78-11.8L262.78-11.8 240.48-11.8Q240.73-9 242.06-6.83 243.38-4.65 245.51-3.38 247.63-2.1 250.13-2.1L250.13-2.1Q252.68-2.1 254.96-3.4 257.23-4.7 258.13-6.8L258.13-6.8 261.08-6Q260.28-4.15 258.63-2.65 256.98-1.15 254.76-0.33 252.53 0.5 249.98 0.5ZM240.38-14.25L240.38-14.25 259.63-14.25Q259.43-17.1 258.11-19.25 256.78-21.4 254.66-22.63 252.53-23.85 249.98-23.85L249.98-23.85Q247.43-23.85 245.33-22.63 243.23-21.4 241.91-19.23 240.58-17.05 240.38-14.25ZM289.98-15.25L289.98 0 286.58 0 286.58-14.55Q286.58-19.15 285.23-21.28 283.88-23.4 280.98-23.4L280.98-23.4Q278.98-23.4 277.03-22.43 275.08-21.45 273.6-19.78 272.13-18.1 271.48-15.95L271.48-15.95 271.48 0 268.08 0 268.08-26.05 271.18-26.05 271.18-20.15Q272.23-22.05 273.93-23.48 275.63-24.9 277.78-25.7 279.93-26.5 282.23-26.5L282.23-26.5Q284.38-26.5 285.88-25.7 287.38-24.9 288.28-23.43 289.18-21.95 289.58-19.88 289.98-17.8 289.98-15.25L289.98-15.25ZM308.58-4L309.48-1.25Q309.08-1.1 308.23-0.7 307.38-0.3 306.18 0 304.98 0.3 303.58 0.3L303.58 0.3Q302.13 0.3 300.85-0.25 299.58-0.8 298.83-1.93 298.08-3.05 298.08-4.7L298.08-4.7 298.08-23.35 294.48-23.35 294.48-26.05 298.08-26.05 298.08-34.85 301.48-34.85 301.48-26.05 307.48-26.05 307.48-23.35 301.48-23.35 301.48-5.65Q301.58-4.25 302.5-3.55 303.43-2.85 304.63-2.85L304.63-2.85Q306.03-2.85 307.18-3.33 308.33-3.8 308.58-4L308.58-4Z" opacity="1" transform="matrix(1,0,0,1,0,0)" fill="#3882f6" class="slogan-text-1" data-fill-palette-color="secondary" id="text-1"></path></svg></g></svg></g></svg></g></svg></g><g transform="matrix(1,0,0,1,76.53311999999995,0)"><svg viewBox="0 0 244.43136 195.83265430588241" height="195.83265430588241" width="244.43136"><g><svg xmlns="http://www.w3.org/2000/svg" xmlns:xlink="http://www.w3.org/1999/xlink" version="1.1" x="0" y="0" viewBox="2 12.8 84.99999999999999 68.10000000000001" enable-background="new 0 0 90 90" xml:space="preserve" height="195.83265430588241" width="244.43136" class="icon-icon-0" data-fill-palette-color="accent" id="icon-0"><g fill="#f9faf8" data-fill-palette-color="accent"><path d="M29 28.9c0.2 0.2 0.4 0.3 0.6 0.3 0.2 0 0.5-0.1 0.6-0.3l3.8-3.8-3.8-3.8c-0.4-0.4-0.9-0.4-1.3 0-0.4 0.4-0.4 0.9 0 1.3l2.5 2.5L29 27.6C28.7 28 28.7 28.6 29 28.9z" fill="#f9faf8" data-fill-palette-color="accent"></path><path d="M35.3 28.1c-0.5 0-0.9 0.4-0.9 0.9 0 0.5 0.4 0.9 0.9 0.9h4.8c0.5 0 0.9-0.4 0.9-0.9 0-0.5-0.4-0.9-0.9-0.9H35.3z" fill="#f9faf8" data-fill-palette-color="accent"></path><path d="M74.2 31.6c0.8-0.2 1.8-0.3 2.7-0.3 1.4 0 2.6 0.3 3.1 0.7 1.4 1.1 2 2.1 2.1 2.1l0.3 0.5 0.2-0.1V55c0 1.5-0.5 2.9-1.4 4l0.6 2.4c1.8-1.6 2.9-3.8 2.9-6.4v-21l2.3-0.6-0.8-1c-0.1-0.1-0.6-0.9-1.5-1.9v-9.2c0-4.7-3.8-8.5-8.5-8.5H29.8c-4.7 0-8.5 3.8-8.5 8.5V35c-0.8 0.2-1.5 0.5-2.3 0.8l-2.2-3.5L12.1 35l1.9 3.6c-1.4 1.1-2.6 2.3-3.7 3.7l-3.6-1.9L4 45.1l3.5 2.2c-0.7 1.7-1.1 3.4-1.4 5.1L2 52.5V58l4.1 0.1c0.2 1.7 0.7 3.5 1.4 5.1L4 65.4l2.7 4.7 3.6-1.9c1.1 1.4 2.3 2.6 3.7 3.7l-1.9 3.6 4.7 2.7 2.2-3.5c1.7 0.7 3.4 1.1 5.1 1.4l0.1 4.1h5.5l0.1-4.1c1.7-0.2 3.5-0.7 5.1-1.4l2.2 3.5 4.7-2.7L40 71.9c1.4-1.1 2.6-2.3 3.7-3.7l3.6 1.9 2.7-4.7-3-1.9h22.9l-0.5-2.1H29.8c-3.5 0-6.4-2.9-6.4-6.4V21.3c0-3.5 2.9-6.4 6.4-6.4h46.4c3.5 0 6.4 2.9 6.4 6.4v6.9c-0.6-0.6-1.2-1.2-1.8-1.6C78.7 25 75.6 24 72.7 24c-1 0-1.9 0.1-2.7 0.3l-11.5 2.9L56.7 26l-5.6 1.4L54.3 40l5.6-1.4 1-1.9 3.9-1 11 45.2 9.1-2.3L72.8 33.3 74.2 31.6zM11.5 59.1c-1-3.9-0.5-8.1 1.7-11.8 1.9-3.3 4.8-5.6 8.1-6.9v10.4c-0.2 0.3-0.4 0.6-0.6 0.9-0.7 1.2-1 2.4-1 3.7 0 1.5-0.8 2.9-2.1 3.7l-2.7 1.6C13.6 61.3 11.9 60.6 11.5 59.1zM38.2 63.5c0.8 0.9 0.9 2.3-0.1 3.2-5 4.8-12.8 6-19.1 2.3-1.1-0.7-2.2-1.4-3.1-2.3-1.1-1.1-0.9-2.9 0.4-3.7l2.7-1.6c1.3-0.8 2.9-0.7 4.2 0 0 0 0 0 0 0 0.7 0.4 1.5 0.7 2.2 0.8 1.2 0.7 2.7 1.1 4.2 1.1H38.2zM59.7 35.2l-1 1.9-3.2 0.8-2.3-9.2 3.2-0.8 1.8 1.2L70.4 26c0.7-0.2 1.5-0.3 2.3-0.3 2.5 0 5.3 0.9 7 2.3 1.5 1.2 3.3 3.3 4.3 4.5l-0.9 0.2c-0.4-0.5-1.1-1.3-2.1-2.1-1.1-0.9-2.9-1.1-4.2-1.1-1.2 0-2.4 0.1-3.4 0.4L73.2 30l-1.7 2.2L59.7 35.2z" fill="#f9faf8" data-fill-palette-color="accent"></path><rect x="56.6" y="31.6" transform="matrix(-0.2466 -0.9691 0.9691 -0.2466 42.9199 97.4263)" width="5.5" height="0.9" fill="#f9faf8" data-fill-palette-color="accent"></rect></g></svg></g></svg></g><g></g></svg></g><defs></defs></svg><rect width="192.84148741072283" height="247.2" fill="none" stroke="none" visibility="hidden"></rect></g></svg></g></svg>